HIERARCHY
ROOT hip
{
	OFFSET 0.000000 0.000000 0.000000 
	CHANNELS 6 Xposition Yposition Zposition Xrotation Zrotation Yrotation
	JOINT abdomen
	{
		OFFSET 0.000000 3.402643 0.000000 
		CHANNELS 3 Xrotation Zrotation Yrotation
		JOINT chest
		{
			OFFSET 0.000000 8.438565 -0.680529 
			CHANNELS 3 Xrotation Zrotation Yrotation
			JOINT neck
			{
				OFFSET 0.000000 10.207942 -0.272212 
				CHANNELS 3 Xrotation Zrotation Yrotation
				JOINT head
				{
					OFFSET 0.000000 3.130431 0.000000 
					CHANNELS 3 Xrotation Zrotation Yrotation
					End Site
					{
						OFFSET 0.000000 3.130435 0.000000 
					}
				}
			}
			JOINT lCollar
			{
				OFFSET 3.470700 6.669187 -0.816635 
				CHANNELS 3 Yrotation Zrotation Xrotation
				JOINT lShldr
				{
					OFFSET 3.198488 0.000000 0.000000 
					CHANNELS 3 Zrotation Yrotation Xrotation
					JOINT lForeArm
					{
						OFFSET 10.139888 0.000000 0.000000 
						CHANNELS 3 Yrotation Zrotation Xrotation
						JOINT lHand
						{
							OFFSET 8.370511 0.000000 0.000000 
							CHANNELS 3 Zrotation Yrotation Xrotation
							End Site
							{
								OFFSET 4.083176 0.000000 0.000000 
							}
						}
					}
				}
			}
			JOINT rCollar
			{
				OFFSET -3.470700 6.669187 -0.816635 
				CHANNELS 3 Yrotation Zrotation Xrotation
				JOINT rShldr
				{
					OFFSET -3.198488 0.000000 0.000000 
					CHANNELS 3 Zrotation Yrotation Xrotation
					JOINT rForeArm
					{
						OFFSET -10.139888 0.000000 0.000000 
						CHANNELS 3 Yrotation Zrotation Xrotation
						JOINT rHand
						{
							OFFSET -8.370511 0.000000 0.000000 
							CHANNELS 3 Zrotation Yrotation Xrotation
							End Site
							{
								OFFSET -4.083176 0.000000 0.000000 
							}
						}
					}
				}
			}
		}
	}
	JOINT lThigh
	{
		OFFSET 5.308129 -1.633274 1.361059 
		CHANNELS 3 Xrotation Zrotation Yrotation
		JOINT lShin
		{
			OFFSET -2.041588 -20.007561 0.000000 
			CHANNELS 3 Xrotation Zrotation Yrotation
			JOINT lFoot
			{
				OFFSET 0.000000 -19.190928 -1.224953 
				CHANNELS 3 Xrotation Yrotation Zrotation
				End Site
				{
					OFFSET 0.000000 -2.449906 4.627600 
				}
			}
		}
	}
	JOINT rThigh
	{
		OFFSET -5.308129 -1.633274 1.361059 
		CHANNELS 3 Xrotation Zrotation Yrotation
		JOINT rShin
		{
			OFFSET 2.041588 -20.007561 0.000000 
			CHANNELS 3 Xrotation Zrotation Yrotation
			JOINT rFoot
			{
				OFFSET 0.000000 -19.190928 -1.224953 
				CHANNELS 3 Xrotation Yrotation Zrotation
				End Site
				{
					OFFSET 0.000000 -2.449906 4.627600 
				}
			}
		}
	}
}
MOTION
Frames: 11
Frame Time: 0.011111
-1.427185 50.526237 -1.987625 162.898407 -179.037872 7.204282 13.565447 -2.093467 -5.227064 -16.812544 1.702161 -1.412466 -22.493011 1.059399 2.330225 57.618412 3.313185 -2.144127 -5.788594 -15.737329 -1.465587 -56.186882 -14.981557 11.247502 -43.371948 5.886372 5.603896 8.524705 12.647240 -48.724010 7.611086 14.174596 -1.900835 57.189541 8.658471 25.613808 40.441769 -4.906250 4.549398 -8.534408 -12.637552 50.081886 -16.468596 -5.896901 0.328761 31.620003 -5.243917 -5.073042 -44.129402 6.312666 6.493810 -58.159683 -4.257616 -0.098110 43.496449 4.358457 6.489810 -48.624767 -14.132925 -14.773601 
-1.420143 50.493271 -2.146058 162.822952 -178.969589 7.577214 13.402744 -2.096635 -5.502588 -16.890675 1.624568 -1.495303 -22.327248 1.180730 2.310036 57.592564 3.144242 -2.260322 -5.788594 -15.737329 -1.465587 -55.870758 -14.872491 13.089021 -42.799332 5.695154 5.381057 8.524705 12.647240 -49.065807 7.611086 14.174596 -1.900835 57.147194 8.456426 26.618214 40.837246 -5.049956 4.694654 -8.534408 -12.637552 51.165871 -16.286657 -6.034759 0.258643 31.590307 -5.243814 -5.070402 -44.021763 6.402939 6.492184 -57.846886 -4.345600 -0.242316 43.595539 4.355245 6.477501 -49.429306 -12.802918 -14.337563 
-1.402540 50.446224 -2.324658 162.640671 -179.061096 7.856452 13.025662 -2.006221 -5.635766 -16.802765 1.560125 -1.543842 -22.279604 1.274320 2.260675 57.658585 3.124393 -2.349187 -5.788594 -15.737329 -1.465587 -55.523457 -14.691850 15.128387 -42.473198 5.591831 5.266726 8.524705 12.647240 -49.456432 7.611086 14.174596 -1.900835 57.128323 8.375371 27.481340 41.080696 -5.134151 4.780022 -8.534408 -12.637552 51.956890 -16.342369 -5.975355 0.203055 31.639803 -5.243985 -5.074801 -43.924595 6.532183 6.564294 -57.629147 -4.150121 -0.106552 43.584984 4.364843 6.480242 -50.107082 -11.916328 -14.150750 
-1.398699 50.399166 -2.540704 162.527237 -178.988770 7.711847 12.604005 -2.096346 -5.491941 -16.685478 1.483851 -1.504319 -22.123388 1.258654 2.265819 57.590645 3.171561 -2.375884 -5.788594 -15.737329 -1.465587 -55.257042 -14.283585 17.249744 -42.402199 5.571520 5.240572 8.524705 12.647240 -49.974010 7.611086 14.174596 -1.900835 57.095226 8.253202 28.406010 41.252903 -5.188547 4.835614 -8.534408 -12.637552 52.620949 -16.185753 -5.984941 0.329614 31.659599 -5.244053 -5.076561 -44.266140 6.368618 6.597170 -57.367229 -3.808385 0.067882 43.595394 4.348507 6.494302 -50.047092 -12.622681 -14.660680 
-1.388776 50.354996 -2.731785 162.166702 -178.885880 7.725764 11.978365 -2.214741 -5.586588 -16.626913 1.477019 -1.542187 -21.916157 1.079686 2.367733 57.497066 3.248208 -2.267349 -5.788594 -15.737329 -1.465587 -55.072479 -13.824366 19.453934 -42.330353 5.544515 5.218628 8.524705 12.647240 -50.569710 7.611086 14.174596 -1.900835 56.978790 8.022380 29.242126 41.629173 -5.322053 4.976482 -8.534408 -12.637552 53.216656 -16.331961 -6.082118 0.481602 31.680624 -5.233529 -5.086023 -44.364159 6.356516 6.633316 -57.360100 -3.740173 -0.097194 43.575172 4.364823 6.479390 -49.622829 -13.623167 -15.080202 
-1.407021 50.309547 -2.959033 161.813354 -178.810074 7.917084 11.249137 -2.195017 -5.782652 -16.324202 1.400124 -1.606265 -22.050058 0.874114 2.494878 57.769421 3.428900 -2.089961 -5.788594 -15.737329 -1.465587 -54.790821 -13.463910 22.227526 -42.218281 5.507411 5.178760 8.524705 12.647240 -50.765026 7.611086 14.174596 -1.900835 56.914383 7.994785 29.571218 41.802231 -5.382287 5.039819 -8.534408 -12.637552 53.158062 -16.407639 -6.247483 0.485346 31.749939 -5.233527 -5.092113 -44.381668 6.302343 6.597286 -57.283150 -3.896241 -0.296154 43.505924 4.358470 6.500327 -49.437279 -13.918280 -15.171376 
-1.392938 50.265377 -3.194283 -18.355635 -1.305040 -171.879120 10.735478 -2.345652 -6.015326 -15.963017 1.452470 -1.663840 -22.126308 0.725940 2.587991 57.974380 3.614788 -1.927067 -5.788594 -15.737329 -1.465587 -54.482941 -13.169777 24.894888 -42.085499 5.457809 5.122642 8.524705 12.647240 -51.067764 7.611086 14.174596 -1.900835 56.796009 8.088496 30.309521 41.893463 -5.407745 5.063675 -8.534408 -12.637552 53.499863 -16.298079 -6.357220 0.585832 31.829775 -5.229244 -5.097963 -44.261990 6.200068 6.452900 -57.190769 -3.690879 0.326021 43.368416 4.368064 6.472012 -50.250370 -14.086956 -15.862901 
-1.359010 50.181198 -3.369040 160.863342 -178.474075 7.901314 9.678652 -2.842728 -5.803016 -15.582108 1.470096 -1.595113 -22.196232 0.546004 2.578383 57.926624 3.917412 -1.843282 -5.788594 -15.737329 -1.465587 -54.074390 -13.013457 26.948277 -42.035305 5.449392 5.113249 8.524705 12.647240 -52.054092 7.611086 14.174596 -1.900835 56.784752 8.333126 30.948305 41.964378 -5.428606 5.089356 -8.534408 -12.637552 54.359230 -17.015070 -6.589818 0.756334 31.937042 -5.233844 -5.137833 -44.311359 6.112451 6.425770 -57.984844 -3.251715 1.294502 43.200649 4.387659 6.445607 -51.141445 -14.244389 -16.611002 
-1.330524 50.121986 -3.575165 160.480423 -178.426239 7.832944 9.109594 -3.004663 -5.706036 -15.425805 1.414283 -1.565167 -22.304579 0.652158 2.516211 58.007015 3.798517 -1.971264 -5.788594 -15.737329 -1.465587 -53.665771 -12.759232 29.160975 -41.943424 5.416856 5.082744 8.524705 12.647240 -52.776741 7.611086 14.174596 -1.900835 56.782322 8.352509 31.856514 42.178680 -5.504615 5.168239 -8.534408 -12.637552 55.511574 -17.222536 -6.610138 0.891291 31.958551 -5.224237 -5.127345 -44.350109 5.830524 6.216706 -58.191093 -2.763278 2.248013 43.091866 4.397520 6.439966 -52.875278 -12.217774 -16.340462 
-1.312921 50.084221 -3.802413 160.230774 -178.321793 7.972723 8.649274 -3.164895 -5.878862 -15.582130 1.413163 -1.627526 -22.117161 0.980770 2.515891 58.125298 3.287845 -2.184482 -5.788594 -15.737329 -1.465587 -53.397091 -12.057209 31.160965 -41.912952 5.405579 5.065184 8.524705 12.647240 -53.255260 7.611086 14.174596 -1.900835 56.757038 7.857393 32.770245 42.464104 -5.600169 5.272992 -8.534408 -12.637552 56.263531 -17.185583 -6.747461 0.801418 31.968449 -5.224268 -5.128224 -44.562958 5.370907 5.956755 -58.184025 -2.529917 3.088686 43.041245 4.420953 6.434722 -54.446518 -9.770739 -15.455888 
-1.297557 50.061180 -4.034783 -20.085842 -1.901847 -171.785187 8.083114 -3.483305 -6.128970 -15.709174 1.413081 -1.698921 -21.833366 1.257653 2.506053 58.134956 2.950581 -2.327739 -5.788594 -15.737329 -1.465587 -53.169544 -11.319918 32.847248 -42.095867 5.463957 5.130382 8.524705 12.647240 -53.763073 7.611086 14.174596 -1.900835 56.907024 7.432984 32.906887 42.565861 -5.630764 5.305423 -8.534408 -12.637552 56.204941 -17.132011 -7.019629 0.808894 31.917576 -5.233808 -5.126383 -44.659550 5.122841 5.820082 -58.334030 -2.490837 3.841514 43.031422 4.420927 6.433869 -55.316700 -9.371922 -15.763588 
